<mxfile host="app.diagrams.net" modified="2023-07-04T13:47:02.275Z" agent="Mozilla/5.0 (Windows NT 10.0; Win64; x64) AppleWebKit/537.36 (KHTML, like Gecko) Chrome/114.0.0.0 Safari/537.36 Edg/114.0.1823.67" etag="XGx7yc8g1355WkdJVh4V" version="21.5.2" type="github">
  <diagram name="第 1 页" id="RIdFQgAQoTJojQbnxjcj">
    <mxGraphModel dx="2846" dy="-14" grid="1" gridSize="10" guides="1" tooltips="1" connect="1" arrows="1" fold="1" page="1" pageScale="1" pageWidth="827" pageHeight="1169" math="0" shadow="0">
      <root>
        <mxCell id="0" />
        <mxCell id="1" parent="0" />
        <mxCell id="ZZE6u8Rq9VthmS_ORE96-96" value="" style="shape=flexArrow;endArrow=classic;html=1;rounded=0;endSize=6;startSize=10;strokeWidth=1;width=15;fillColor=#000000;" parent="1" edge="1">
          <mxGeometry width="50" height="50" relative="1" as="geometry">
            <mxPoint x="500" y="1540" as="sourcePoint" />
            <mxPoint x="500" y="1580" as="targetPoint" />
          </mxGeometry>
        </mxCell>
        <mxCell id="ZZE6u8Rq9VthmS_ORE96-97" value="" style="rounded=0;whiteSpace=wrap;html=1;" parent="1" vertex="1">
          <mxGeometry x="40" y="1240" width="320" height="200" as="geometry" />
        </mxCell>
        <mxCell id="ZZE6u8Rq9VthmS_ORE96-99" value="" style="rounded=0;whiteSpace=wrap;html=1;fillColor=#4D4D4D;" parent="1" vertex="1">
          <mxGeometry x="120" y="1260" width="40" height="40" as="geometry" />
        </mxCell>
        <mxCell id="ZZE6u8Rq9VthmS_ORE96-101" value="" style="rounded=0;whiteSpace=wrap;html=1;fillColor=#4D4D4D;" parent="1" vertex="1">
          <mxGeometry x="240" y="1260" width="40" height="40" as="geometry" />
        </mxCell>
        <mxCell id="ZZE6u8Rq9VthmS_ORE96-103" value="" style="rounded=0;whiteSpace=wrap;html=1;fillColor=#4D4D4D;" parent="1" vertex="1">
          <mxGeometry x="60" y="1320" width="40" height="40" as="geometry" />
        </mxCell>
        <mxCell id="ZZE6u8Rq9VthmS_ORE96-111" value="" style="rounded=0;whiteSpace=wrap;html=1;fillColor=#4D4D4D;" parent="1" vertex="1">
          <mxGeometry x="240" y="1380" width="40" height="40" as="geometry" />
        </mxCell>
        <mxCell id="ZZE6u8Rq9VthmS_ORE96-113" value="&lt;font style=&quot;font-size: 24px;&quot;&gt;source host&lt;/font&gt;" style="rounded=0;whiteSpace=wrap;html=1;" parent="1" vertex="1">
          <mxGeometry x="40" y="1460" width="320" height="60" as="geometry" />
        </mxCell>
        <mxCell id="ZZE6u8Rq9VthmS_ORE96-117" value="&lt;span style=&quot;font-size: 20px;&quot;&gt;Remaining dirty RAM&lt;/span&gt;" style="text;html=1;strokeColor=none;fillColor=none;align=center;verticalAlign=middle;whiteSpace=wrap;rounded=0;" parent="1" vertex="1">
          <mxGeometry x="40" y="1200" width="320" height="40" as="geometry" />
        </mxCell>
        <mxCell id="ZZE6u8Rq9VthmS_ORE96-121" style="edgeStyle=orthogonalEdgeStyle;rounded=0;orthogonalLoop=1;jettySize=auto;html=1;exitX=1;exitY=0.5;exitDx=0;exitDy=0;entryX=0;entryY=0.5;entryDx=0;entryDy=0;endSize=10;startSize=10;strokeWidth=3;" parent="1" edge="1" source="ZZE6u8Rq9VthmS_ORE96-97">
          <mxGeometry relative="1" as="geometry">
            <mxPoint x="400" y="1339.5" as="sourcePoint" />
            <mxPoint x="640" y="1339.5" as="targetPoint" />
          </mxGeometry>
        </mxCell>
        <mxCell id="ZZE6u8Rq9VthmS_ORE96-122" value="" style="rounded=0;whiteSpace=wrap;html=1;" parent="1" vertex="1">
          <mxGeometry x="640" y="1240" width="320" height="200" as="geometry" />
        </mxCell>
        <mxCell id="ZZE6u8Rq9VthmS_ORE96-123" value="" style="rounded=0;whiteSpace=wrap;html=1;fillColor=#E6E6E6;" parent="1" vertex="1">
          <mxGeometry x="660" y="1260" width="40" height="40" as="geometry" />
        </mxCell>
        <mxCell id="ZZE6u8Rq9VthmS_ORE96-125" value="" style="rounded=0;whiteSpace=wrap;html=1;fillColor=#E6E6E6;" parent="1" vertex="1">
          <mxGeometry x="780" y="1260" width="40" height="40" as="geometry" />
        </mxCell>
        <mxCell id="ZZE6u8Rq9VthmS_ORE96-127" value="" style="rounded=0;whiteSpace=wrap;html=1;fillColor=#E6E6E6;" parent="1" vertex="1">
          <mxGeometry x="900" y="1260" width="40" height="40" as="geometry" />
        </mxCell>
        <mxCell id="ZZE6u8Rq9VthmS_ORE96-129" value="" style="rounded=0;whiteSpace=wrap;html=1;fillColor=#E6E6E6;" parent="1" vertex="1">
          <mxGeometry x="720" y="1320" width="40" height="40" as="geometry" />
        </mxCell>
        <mxCell id="ZZE6u8Rq9VthmS_ORE96-130" value="" style="rounded=0;whiteSpace=wrap;html=1;fillColor=#E6E6E6;" parent="1" vertex="1">
          <mxGeometry x="780" y="1320" width="40" height="40" as="geometry" />
        </mxCell>
        <mxCell id="ZZE6u8Rq9VthmS_ORE96-131" value="" style="rounded=0;whiteSpace=wrap;html=1;fillColor=#E6E6E6;" parent="1" vertex="1">
          <mxGeometry x="840" y="1320" width="40" height="40" as="geometry" />
        </mxCell>
        <mxCell id="ZZE6u8Rq9VthmS_ORE96-132" value="" style="rounded=0;whiteSpace=wrap;html=1;fillColor=#E6E6E6;" parent="1" vertex="1">
          <mxGeometry x="900" y="1320" width="40" height="40" as="geometry" />
        </mxCell>
        <mxCell id="ZZE6u8Rq9VthmS_ORE96-133" value="" style="rounded=0;whiteSpace=wrap;html=1;fillColor=#E6E6E6;" parent="1" vertex="1">
          <mxGeometry x="660" y="1380" width="40" height="40" as="geometry" />
        </mxCell>
        <mxCell id="ZZE6u8Rq9VthmS_ORE96-134" value="" style="rounded=0;whiteSpace=wrap;html=1;fillColor=#E6E6E6;" parent="1" vertex="1">
          <mxGeometry x="720" y="1380" width="40" height="40" as="geometry" />
        </mxCell>
        <mxCell id="ZZE6u8Rq9VthmS_ORE96-135" value="" style="rounded=0;whiteSpace=wrap;html=1;fillColor=#E6E6E6;" parent="1" vertex="1">
          <mxGeometry x="780" y="1380" width="40" height="40" as="geometry" />
        </mxCell>
        <mxCell id="ZZE6u8Rq9VthmS_ORE96-137" value="" style="rounded=0;whiteSpace=wrap;html=1;fillColor=#E6E6E6;" parent="1" vertex="1">
          <mxGeometry x="900" y="1380" width="40" height="40" as="geometry" />
        </mxCell>
        <mxCell id="ZZE6u8Rq9VthmS_ORE96-138" value="&lt;font style=&quot;font-size: 24px;&quot;&gt;destination host&lt;/font&gt;" style="rounded=0;whiteSpace=wrap;html=1;" parent="1" vertex="1">
          <mxGeometry x="640" y="1460" width="320" height="60" as="geometry" />
        </mxCell>
        <mxCell id="ZZE6u8Rq9VthmS_ORE96-139" value="&lt;font style=&quot;font-size: 20px;&quot;&gt;RAM state at t&lt;sub&gt;0&lt;/sub&gt;&lt;/font&gt;" style="text;html=1;strokeColor=none;fillColor=none;align=center;verticalAlign=middle;whiteSpace=wrap;rounded=0;" parent="1" vertex="1">
          <mxGeometry x="640" y="1200" width="320" height="40" as="geometry" />
        </mxCell>
        <mxCell id="ZZE6u8Rq9VthmS_ORE96-140" value="&lt;font style=&quot;font-size: 24px;&quot;&gt;hybrid post-copy (t&lt;sub&gt;0&lt;/sub&gt;)&lt;/font&gt;" style="text;html=1;strokeColor=none;fillColor=#CCFFFF;align=center;verticalAlign=middle;whiteSpace=wrap;rounded=1;shadow=1;" parent="1" vertex="1">
          <mxGeometry x="380" y="1380" width="240" height="40" as="geometry" />
        </mxCell>
        <mxCell id="Bh8vIYuXL07o2s54XIgm-1" value="" style="rounded=0;whiteSpace=wrap;html=1;" parent="1" vertex="1">
          <mxGeometry x="40" y="1640" width="320" height="200" as="geometry" />
        </mxCell>
        <mxCell id="Bh8vIYuXL07o2s54XIgm-5" value="" style="rounded=0;whiteSpace=wrap;html=1;fillColor=#4D4D4D;" parent="1" vertex="1">
          <mxGeometry x="240" y="1780" width="40" height="40" as="geometry" />
        </mxCell>
        <mxCell id="Bh8vIYuXL07o2s54XIgm-6" value="&lt;font style=&quot;font-size: 24px;&quot;&gt;source host&lt;/font&gt;" style="rounded=0;whiteSpace=wrap;html=1;" parent="1" vertex="1">
          <mxGeometry x="40" y="1860" width="320" height="60" as="geometry" />
        </mxCell>
        <mxCell id="Bh8vIYuXL07o2s54XIgm-7" value="&lt;span style=&quot;font-size: 20px;&quot;&gt;Remaining dirty RAM&lt;/span&gt;" style="text;html=1;strokeColor=none;fillColor=none;align=center;verticalAlign=middle;whiteSpace=wrap;rounded=0;" parent="1" vertex="1">
          <mxGeometry x="40" y="1600" width="320" height="40" as="geometry" />
        </mxCell>
        <mxCell id="Bh8vIYuXL07o2s54XIgm-96" style="edgeStyle=orthogonalEdgeStyle;rounded=0;orthogonalLoop=1;jettySize=auto;html=1;exitX=1;exitY=0.75;exitDx=0;exitDy=0;entryX=0;entryY=0.5;entryDx=0;entryDy=0;strokeWidth=3;endSize=10;startSize=10;" parent="1" source="Bh8vIYuXL07o2s54XIgm-8" target="Bh8vIYuXL07o2s54XIgm-91" edge="1">
          <mxGeometry relative="1" as="geometry" />
        </mxCell>
        <mxCell id="Bh8vIYuXL07o2s54XIgm-8" value="" style="rounded=0;whiteSpace=wrap;html=1;" parent="1" vertex="1">
          <mxGeometry x="640" y="1640" width="320" height="200" as="geometry" />
        </mxCell>
        <mxCell id="Bh8vIYuXL07o2s54XIgm-9" value="" style="rounded=0;whiteSpace=wrap;html=1;fillColor=#E6E6E6;" parent="1" vertex="1">
          <mxGeometry x="660" y="1660" width="40" height="40" as="geometry" />
        </mxCell>
        <mxCell id="Bh8vIYuXL07o2s54XIgm-10" value="" style="rounded=0;whiteSpace=wrap;html=1;fillColor=#E6E6E6;" parent="1" vertex="1">
          <mxGeometry x="780" y="1660" width="40" height="40" as="geometry" />
        </mxCell>
        <mxCell id="Bh8vIYuXL07o2s54XIgm-11" value="" style="rounded=0;whiteSpace=wrap;html=1;fillColor=#FFCCCC;" parent="1" vertex="1">
          <mxGeometry x="900" y="1660" width="40" height="40" as="geometry" />
        </mxCell>
        <mxCell id="Bh8vIYuXL07o2s54XIgm-12" value="" style="rounded=0;whiteSpace=wrap;html=1;fillColor=#E6E6E6;" parent="1" vertex="1">
          <mxGeometry x="720" y="1720" width="40" height="40" as="geometry" />
        </mxCell>
        <mxCell id="Bh8vIYuXL07o2s54XIgm-13" value="" style="rounded=0;whiteSpace=wrap;html=1;fillColor=#E6E6E6;" parent="1" vertex="1">
          <mxGeometry x="780" y="1720" width="40" height="40" as="geometry" />
        </mxCell>
        <mxCell id="Bh8vIYuXL07o2s54XIgm-14" value="" style="rounded=0;whiteSpace=wrap;html=1;fillColor=#E6E6E6;" parent="1" vertex="1">
          <mxGeometry x="840" y="1720" width="40" height="40" as="geometry" />
        </mxCell>
        <mxCell id="Bh8vIYuXL07o2s54XIgm-15" value="" style="rounded=0;whiteSpace=wrap;html=1;fillColor=#E6E6E6;" parent="1" vertex="1">
          <mxGeometry x="900" y="1720" width="40" height="40" as="geometry" />
        </mxCell>
        <mxCell id="Bh8vIYuXL07o2s54XIgm-16" value="" style="rounded=0;whiteSpace=wrap;html=1;fillColor=#E6E6E6;" parent="1" vertex="1">
          <mxGeometry x="660" y="1780" width="40" height="40" as="geometry" />
        </mxCell>
        <mxCell id="Bh8vIYuXL07o2s54XIgm-17" value="" style="rounded=0;whiteSpace=wrap;html=1;fillColor=#E6E6E6;strokeColor=#000000;" parent="1" vertex="1">
          <mxGeometry x="720" y="1780" width="40" height="40" as="geometry" />
        </mxCell>
        <mxCell id="Bh8vIYuXL07o2s54XIgm-18" value="" style="rounded=0;whiteSpace=wrap;html=1;fillColor=#E6E6E6;" parent="1" vertex="1">
          <mxGeometry x="780" y="1780" width="40" height="40" as="geometry" />
        </mxCell>
        <mxCell id="Bh8vIYuXL07o2s54XIgm-19" value="" style="rounded=0;whiteSpace=wrap;html=1;fillColor=#FFCCCC;" parent="1" vertex="1">
          <mxGeometry x="900" y="1780" width="40" height="40" as="geometry" />
        </mxCell>
        <mxCell id="Bh8vIYuXL07o2s54XIgm-20" value="&lt;font style=&quot;font-size: 24px;&quot;&gt;destination host&lt;/font&gt;" style="rounded=0;whiteSpace=wrap;html=1;" parent="1" vertex="1">
          <mxGeometry x="640" y="1860" width="320" height="60" as="geometry" />
        </mxCell>
        <mxCell id="Bh8vIYuXL07o2s54XIgm-22" style="edgeStyle=orthogonalEdgeStyle;rounded=0;orthogonalLoop=1;jettySize=auto;html=1;exitX=1;exitY=0.5;exitDx=0;exitDy=0;entryX=0;entryY=0.5;entryDx=0;entryDy=0;endSize=10;startSize=10;strokeWidth=3;" parent="1" edge="1" source="Bh8vIYuXL07o2s54XIgm-1">
          <mxGeometry relative="1" as="geometry">
            <mxPoint x="400" y="1739.5" as="sourcePoint" />
            <mxPoint x="640" y="1739.5" as="targetPoint" />
          </mxGeometry>
        </mxCell>
        <mxCell id="Bh8vIYuXL07o2s54XIgm-4" value="" style="rounded=0;whiteSpace=wrap;html=1;fillColor=#4D4D4D;" parent="1" vertex="1">
          <mxGeometry x="60" y="1720" width="40" height="40" as="geometry" />
        </mxCell>
        <mxCell id="Bh8vIYuXL07o2s54XIgm-2" value="" style="rounded=0;whiteSpace=wrap;html=1;fillColor=#4D4D4D;" parent="1" vertex="1">
          <mxGeometry x="720" y="1660" width="40" height="40" as="geometry" />
        </mxCell>
        <mxCell id="Bh8vIYuXL07o2s54XIgm-24" value="&lt;font style=&quot;font-size: 24px;&quot;&gt;hybrid post-copy (t&lt;sub&gt;1&lt;/sub&gt;)&lt;/font&gt;" style="text;html=1;strokeColor=none;fillColor=#CCFFFF;align=center;verticalAlign=middle;whiteSpace=wrap;rounded=1;shadow=1;" parent="1" vertex="1">
          <mxGeometry x="380" y="1780" width="240" height="40" as="geometry" />
        </mxCell>
        <mxCell id="Bh8vIYuXL07o2s54XIgm-25" value="&lt;font style=&quot;font-size: 18px;&quot;&gt;pages modified within t&lt;sub&gt;0&lt;/sub&gt; ~ t&lt;sub&gt;1&lt;/sub&gt;&lt;br&gt;&lt;/font&gt;" style="text;html=1;strokeColor=none;fillColor=none;align=center;verticalAlign=middle;whiteSpace=wrap;rounded=0;" parent="1" vertex="1">
          <mxGeometry x="1000" y="1620" width="280" height="40" as="geometry" />
        </mxCell>
        <mxCell id="Bh8vIYuXL07o2s54XIgm-26" value="" style="endArrow=none;html=1;rounded=0;dashed=1;" parent="1" edge="1">
          <mxGeometry width="50" height="50" relative="1" as="geometry">
            <mxPoint x="-40" y="1560" as="sourcePoint" />
            <mxPoint x="1040" y="1560" as="targetPoint" />
          </mxGeometry>
        </mxCell>
        <mxCell id="Bh8vIYuXL07o2s54XIgm-27" value="" style="shape=image;html=1;verticalAlign=top;verticalLabelPosition=bottom;labelBackgroundColor=#ffffff;imageAspect=0;aspect=fixed;image=https://cdn1.iconfinder.com/data/icons/material-audio-video/22/loop-128.png" parent="1" vertex="1">
          <mxGeometry x="400" y="1280" width="40" height="40" as="geometry" />
        </mxCell>
        <mxCell id="Bh8vIYuXL07o2s54XIgm-28" value="" style="rounded=0;whiteSpace=wrap;html=1;" parent="1" vertex="1">
          <mxGeometry x="450" y="1280" width="20" height="40" as="geometry" />
        </mxCell>
        <mxCell id="Bh8vIYuXL07o2s54XIgm-29" value="" style="rounded=0;whiteSpace=wrap;html=1;" parent="1" vertex="1">
          <mxGeometry x="480" y="1280" width="20" height="40" as="geometry" />
        </mxCell>
        <mxCell id="Bh8vIYuXL07o2s54XIgm-30" value="" style="rounded=0;whiteSpace=wrap;html=1;" parent="1" vertex="1">
          <mxGeometry x="510" y="1280" width="20" height="40" as="geometry" />
        </mxCell>
        <mxCell id="Bh8vIYuXL07o2s54XIgm-31" value="" style="rounded=0;whiteSpace=wrap;html=1;" parent="1" vertex="1">
          <mxGeometry x="540" y="1280" width="20" height="40" as="geometry" />
        </mxCell>
        <mxCell id="Bh8vIYuXL07o2s54XIgm-32" value="&lt;font style=&quot;font-size: 18px;&quot;&gt;...&lt;/font&gt;" style="text;html=1;strokeColor=none;fillColor=none;align=center;verticalAlign=middle;whiteSpace=wrap;rounded=0;" parent="1" vertex="1">
          <mxGeometry x="560" y="1280" width="40" height="40" as="geometry" />
        </mxCell>
        <mxCell id="Bh8vIYuXL07o2s54XIgm-34" value="" style="endArrow=classic;html=1;rounded=0;exitX=0.2;exitY=1;exitDx=0;exitDy=0;exitPerimeter=0;" parent="1" edge="1">
          <mxGeometry width="50" height="50" relative="1" as="geometry">
            <mxPoint x="460" y="1260" as="sourcePoint" />
            <mxPoint x="460" y="1280" as="targetPoint" />
          </mxGeometry>
        </mxCell>
        <mxCell id="Bh8vIYuXL07o2s54XIgm-35" value="" style="endArrow=classic;html=1;rounded=0;exitX=0.4;exitY=1;exitDx=0;exitDy=0;exitPerimeter=0;entryX=0.5;entryY=0;entryDx=0;entryDy=0;" parent="1" target="Bh8vIYuXL07o2s54XIgm-29" edge="1">
          <mxGeometry width="50" height="50" relative="1" as="geometry">
            <mxPoint x="490" y="1260" as="sourcePoint" />
            <mxPoint x="470" y="1290" as="targetPoint" />
          </mxGeometry>
        </mxCell>
        <mxCell id="Bh8vIYuXL07o2s54XIgm-36" value="" style="endArrow=classic;html=1;rounded=0;exitX=0.6;exitY=1;exitDx=0;exitDy=0;exitPerimeter=0;entryX=0.5;entryY=0;entryDx=0;entryDy=0;" parent="1" target="Bh8vIYuXL07o2s54XIgm-30" edge="1">
          <mxGeometry width="50" height="50" relative="1" as="geometry">
            <mxPoint x="520" y="1260" as="sourcePoint" />
            <mxPoint x="480" y="1300" as="targetPoint" />
          </mxGeometry>
        </mxCell>
        <mxCell id="Bh8vIYuXL07o2s54XIgm-37" value="" style="endArrow=classic;html=1;rounded=0;exitX=0.8;exitY=1;exitDx=0;exitDy=0;exitPerimeter=0;entryX=0.5;entryY=0;entryDx=0;entryDy=0;" parent="1" target="Bh8vIYuXL07o2s54XIgm-31" edge="1">
          <mxGeometry width="50" height="50" relative="1" as="geometry">
            <mxPoint x="550" y="1260" as="sourcePoint" />
            <mxPoint x="490" y="1310" as="targetPoint" />
          </mxGeometry>
        </mxCell>
        <mxCell id="Bh8vIYuXL07o2s54XIgm-38" value="" style="shape=image;html=1;verticalAlign=top;verticalLabelPosition=bottom;labelBackgroundColor=#ffffff;imageAspect=0;aspect=fixed;image=https://cdn1.iconfinder.com/data/icons/material-audio-video/22/loop-128.png" parent="1" vertex="1">
          <mxGeometry x="400" y="1680" width="40" height="40" as="geometry" />
        </mxCell>
        <mxCell id="Bh8vIYuXL07o2s54XIgm-39" value="" style="rounded=0;whiteSpace=wrap;html=1;" parent="1" vertex="1">
          <mxGeometry x="450" y="1680" width="20" height="40" as="geometry" />
        </mxCell>
        <mxCell id="Bh8vIYuXL07o2s54XIgm-40" value="" style="rounded=0;whiteSpace=wrap;html=1;" parent="1" vertex="1">
          <mxGeometry x="480" y="1680" width="20" height="40" as="geometry" />
        </mxCell>
        <mxCell id="Bh8vIYuXL07o2s54XIgm-41" value="" style="rounded=0;whiteSpace=wrap;html=1;" parent="1" vertex="1">
          <mxGeometry x="510" y="1680" width="20" height="40" as="geometry" />
        </mxCell>
        <mxCell id="Bh8vIYuXL07o2s54XIgm-42" value="" style="rounded=0;whiteSpace=wrap;html=1;" parent="1" vertex="1">
          <mxGeometry x="540" y="1680" width="20" height="40" as="geometry" />
        </mxCell>
        <mxCell id="Bh8vIYuXL07o2s54XIgm-43" value="&lt;font style=&quot;font-size: 18px;&quot;&gt;...&lt;/font&gt;" style="text;html=1;strokeColor=none;fillColor=none;align=center;verticalAlign=middle;whiteSpace=wrap;rounded=0;" parent="1" vertex="1">
          <mxGeometry x="560" y="1680" width="40" height="40" as="geometry" />
        </mxCell>
        <mxCell id="Bh8vIYuXL07o2s54XIgm-45" value="" style="endArrow=classic;html=1;rounded=0;exitX=0.2;exitY=1;exitDx=0;exitDy=0;exitPerimeter=0;" parent="1" edge="1">
          <mxGeometry width="50" height="50" relative="1" as="geometry">
            <mxPoint x="460" y="1660" as="sourcePoint" />
            <mxPoint x="460" y="1680" as="targetPoint" />
          </mxGeometry>
        </mxCell>
        <mxCell id="Bh8vIYuXL07o2s54XIgm-46" value="" style="endArrow=classic;html=1;rounded=0;exitX=0.4;exitY=1;exitDx=0;exitDy=0;exitPerimeter=0;entryX=0.5;entryY=0;entryDx=0;entryDy=0;" parent="1" target="Bh8vIYuXL07o2s54XIgm-40" edge="1">
          <mxGeometry width="50" height="50" relative="1" as="geometry">
            <mxPoint x="490" y="1660" as="sourcePoint" />
            <mxPoint x="470" y="1690" as="targetPoint" />
          </mxGeometry>
        </mxCell>
        <mxCell id="Bh8vIYuXL07o2s54XIgm-47" value="" style="endArrow=classic;html=1;rounded=0;exitX=0.6;exitY=1;exitDx=0;exitDy=0;exitPerimeter=0;entryX=0.5;entryY=0;entryDx=0;entryDy=0;" parent="1" target="Bh8vIYuXL07o2s54XIgm-41" edge="1">
          <mxGeometry width="50" height="50" relative="1" as="geometry">
            <mxPoint x="520" y="1660" as="sourcePoint" />
            <mxPoint x="480" y="1700" as="targetPoint" />
          </mxGeometry>
        </mxCell>
        <mxCell id="Bh8vIYuXL07o2s54XIgm-48" value="" style="endArrow=classic;html=1;rounded=0;exitX=0.8;exitY=1;exitDx=0;exitDy=0;exitPerimeter=0;entryX=0.5;entryY=0;entryDx=0;entryDy=0;" parent="1" target="Bh8vIYuXL07o2s54XIgm-42" edge="1">
          <mxGeometry width="50" height="50" relative="1" as="geometry">
            <mxPoint x="550" y="1660" as="sourcePoint" />
            <mxPoint x="490" y="1710" as="targetPoint" />
          </mxGeometry>
        </mxCell>
        <mxCell id="Bh8vIYuXL07o2s54XIgm-49" value="" style="endArrow=classic;html=1;rounded=0;exitX=0;exitY=0.5;exitDx=0;exitDy=0;entryX=1;entryY=0.5;entryDx=0;entryDy=0;" parent="1" source="Bh8vIYuXL07o2s54XIgm-25" target="Bh8vIYuXL07o2s54XIgm-11" edge="1">
          <mxGeometry width="50" height="50" relative="1" as="geometry">
            <mxPoint x="1080" y="1580" as="sourcePoint" />
            <mxPoint x="980" y="1650" as="targetPoint" />
          </mxGeometry>
        </mxCell>
        <mxCell id="Bh8vIYuXL07o2s54XIgm-50" value="" style="endArrow=classic;html=1;rounded=0;exitX=0.095;exitY=1;exitDx=0;exitDy=0;entryX=1;entryY=0.25;entryDx=0;entryDy=0;exitPerimeter=0;" parent="1" source="Bh8vIYuXL07o2s54XIgm-25" target="Bh8vIYuXL07o2s54XIgm-19" edge="1">
          <mxGeometry width="50" height="50" relative="1" as="geometry">
            <mxPoint x="1010" y="1670" as="sourcePoint" />
            <mxPoint x="950" y="1690" as="targetPoint" />
          </mxGeometry>
        </mxCell>
        <mxCell id="Bh8vIYuXL07o2s54XIgm-3" value="" style="rounded=0;whiteSpace=wrap;html=1;fillColor=#4D4D4D;" parent="1" vertex="1">
          <mxGeometry x="840" y="1660" width="40" height="40" as="geometry" />
        </mxCell>
        <mxCell id="Bh8vIYuXL07o2s54XIgm-51" value="" style="shape=flexArrow;endArrow=classic;html=1;rounded=0;endSize=6;startSize=10;strokeWidth=1;width=15;fillColor=#000000;" parent="1" edge="1">
          <mxGeometry width="50" height="50" relative="1" as="geometry">
            <mxPoint x="500" y="1940" as="sourcePoint" />
            <mxPoint x="500" y="1980" as="targetPoint" />
          </mxGeometry>
        </mxCell>
        <mxCell id="Bh8vIYuXL07o2s54XIgm-52" value="" style="rounded=0;whiteSpace=wrap;html=1;" parent="1" vertex="1">
          <mxGeometry x="40" y="2040" width="320" height="200" as="geometry" />
        </mxCell>
        <mxCell id="Bh8vIYuXL07o2s54XIgm-53" value="" style="rounded=0;whiteSpace=wrap;html=1;fillColor=#4D4D4D;" parent="1" vertex="1">
          <mxGeometry x="240" y="2180" width="40" height="40" as="geometry" />
        </mxCell>
        <mxCell id="Bh8vIYuXL07o2s54XIgm-54" value="&lt;font style=&quot;font-size: 24px;&quot;&gt;source host&lt;/font&gt;" style="rounded=0;whiteSpace=wrap;html=1;" parent="1" vertex="1">
          <mxGeometry x="40" y="2260" width="320" height="60" as="geometry" />
        </mxCell>
        <mxCell id="Bh8vIYuXL07o2s54XIgm-55" value="&lt;span style=&quot;font-size: 20px;&quot;&gt;Remaining dirty RAM&lt;/span&gt;" style="text;html=1;strokeColor=none;fillColor=none;align=center;verticalAlign=middle;whiteSpace=wrap;rounded=0;" parent="1" vertex="1">
          <mxGeometry x="40" y="2000" width="320" height="40" as="geometry" />
        </mxCell>
        <mxCell id="Bh8vIYuXL07o2s54XIgm-108" style="edgeStyle=orthogonalEdgeStyle;rounded=0;orthogonalLoop=1;jettySize=auto;html=1;exitX=1;exitY=0.75;exitDx=0;exitDy=0;entryX=0;entryY=0.5;entryDx=0;entryDy=0;strokeWidth=3;endSize=10;startSize=10;" parent="1" source="Bh8vIYuXL07o2s54XIgm-56" target="Bh8vIYuXL07o2s54XIgm-97" edge="1">
          <mxGeometry relative="1" as="geometry" />
        </mxCell>
        <mxCell id="Bh8vIYuXL07o2s54XIgm-56" value="" style="rounded=0;whiteSpace=wrap;html=1;" parent="1" vertex="1">
          <mxGeometry x="640" y="2040" width="320" height="200" as="geometry" />
        </mxCell>
        <mxCell id="Bh8vIYuXL07o2s54XIgm-57" value="" style="rounded=0;whiteSpace=wrap;html=1;fillColor=#E6E6E6;" parent="1" vertex="1">
          <mxGeometry x="660" y="2060" width="40" height="40" as="geometry" />
        </mxCell>
        <mxCell id="Bh8vIYuXL07o2s54XIgm-58" value="" style="rounded=0;whiteSpace=wrap;html=1;fillColor=#E6E6E6;" parent="1" vertex="1">
          <mxGeometry x="780" y="2060" width="40" height="40" as="geometry" />
        </mxCell>
        <mxCell id="Bh8vIYuXL07o2s54XIgm-59" value="" style="rounded=0;whiteSpace=wrap;html=1;fillColor=#FFCCCC;rotation=0;" parent="1" vertex="1">
          <mxGeometry x="900" y="2060" width="40" height="40" as="geometry" />
        </mxCell>
        <mxCell id="Bh8vIYuXL07o2s54XIgm-60" value="" style="rounded=0;whiteSpace=wrap;html=1;fillColor=#E6E6E6;" parent="1" vertex="1">
          <mxGeometry x="720" y="2120" width="40" height="40" as="geometry" />
        </mxCell>
        <mxCell id="Bh8vIYuXL07o2s54XIgm-61" value="" style="rounded=0;whiteSpace=wrap;html=1;fillColor=#E6E6E6;" parent="1" vertex="1">
          <mxGeometry x="780" y="2120" width="40" height="40" as="geometry" />
        </mxCell>
        <mxCell id="Bh8vIYuXL07o2s54XIgm-62" value="" style="rounded=0;whiteSpace=wrap;html=1;fillColor=#E6E6E6;" parent="1" vertex="1">
          <mxGeometry x="840" y="2120" width="40" height="40" as="geometry" />
        </mxCell>
        <mxCell id="Bh8vIYuXL07o2s54XIgm-63" value="" style="rounded=0;whiteSpace=wrap;html=1;fillColor=#FFFFCC;" parent="1" vertex="1">
          <mxGeometry x="900" y="2120" width="40" height="40" as="geometry" />
        </mxCell>
        <mxCell id="Bh8vIYuXL07o2s54XIgm-64" value="" style="rounded=0;whiteSpace=wrap;html=1;fillColor=#E6E6E6;" parent="1" vertex="1">
          <mxGeometry x="660" y="2180" width="40" height="40" as="geometry" />
        </mxCell>
        <mxCell id="Bh8vIYuXL07o2s54XIgm-65" value="" style="rounded=0;whiteSpace=wrap;html=1;fillColor=#E6E6E6;strokeColor=#000000;" parent="1" vertex="1">
          <mxGeometry x="720" y="2180" width="40" height="40" as="geometry" />
        </mxCell>
        <mxCell id="Bh8vIYuXL07o2s54XIgm-66" value="" style="rounded=0;whiteSpace=wrap;html=1;fillColor=#FFFFCC;" parent="1" vertex="1">
          <mxGeometry x="780" y="2180" width="40" height="40" as="geometry" />
        </mxCell>
        <mxCell id="Bh8vIYuXL07o2s54XIgm-67" value="" style="rounded=0;whiteSpace=wrap;html=1;fillColor=#FFCCCC;" parent="1" vertex="1">
          <mxGeometry x="900" y="2180" width="40" height="40" as="geometry" />
        </mxCell>
        <mxCell id="Bh8vIYuXL07o2s54XIgm-68" value="&lt;font style=&quot;font-size: 24px;&quot;&gt;destination host&lt;/font&gt;" style="rounded=0;whiteSpace=wrap;html=1;" parent="1" vertex="1">
          <mxGeometry x="640" y="2260" width="320" height="60" as="geometry" />
        </mxCell>
        <mxCell id="Bh8vIYuXL07o2s54XIgm-70" style="edgeStyle=orthogonalEdgeStyle;rounded=0;orthogonalLoop=1;jettySize=auto;html=1;exitX=1;exitY=0.5;exitDx=0;exitDy=0;entryX=0;entryY=0.5;entryDx=0;entryDy=0;endSize=10;startSize=10;strokeWidth=3;" parent="1" edge="1" target="Bh8vIYuXL07o2s54XIgm-56" source="Bh8vIYuXL07o2s54XIgm-52">
          <mxGeometry relative="1" as="geometry">
            <mxPoint x="400" y="2137.5" as="sourcePoint" />
            <mxPoint x="640" y="2137.5" as="targetPoint" />
          </mxGeometry>
        </mxCell>
        <mxCell id="Bh8vIYuXL07o2s54XIgm-71" value="" style="rounded=0;whiteSpace=wrap;html=1;fillColor=#4D4D4D;" parent="1" vertex="1">
          <mxGeometry x="660" y="2120" width="40" height="40" as="geometry" />
        </mxCell>
        <mxCell id="Bh8vIYuXL07o2s54XIgm-72" value="" style="rounded=0;whiteSpace=wrap;html=1;fillColor=#4D4D4D;" parent="1" vertex="1">
          <mxGeometry x="720" y="2060" width="40" height="40" as="geometry" />
        </mxCell>
        <mxCell id="Bh8vIYuXL07o2s54XIgm-73" value="&lt;font style=&quot;font-size: 24px;&quot;&gt;hybrid post-copy (t&lt;sub&gt;2&lt;/sub&gt;)&lt;/font&gt;" style="text;html=1;strokeColor=none;fillColor=#CCFFFF;align=center;verticalAlign=middle;whiteSpace=wrap;rounded=1;shadow=1;" parent="1" vertex="1">
          <mxGeometry x="380" y="2180" width="240" height="40" as="geometry" />
        </mxCell>
        <mxCell id="Bh8vIYuXL07o2s54XIgm-74" value="&lt;font style=&quot;font-size: 18px;&quot;&gt;pages modified within t&lt;sub&gt;1&lt;/sub&gt; ~ t&lt;sub&gt;2&lt;/sub&gt;&lt;br&gt;&lt;/font&gt;" style="text;html=1;strokeColor=none;fillColor=none;align=center;verticalAlign=middle;whiteSpace=wrap;rounded=0;" parent="1" vertex="1">
          <mxGeometry x="1000" y="1998" width="280" height="40" as="geometry" />
        </mxCell>
        <mxCell id="Bh8vIYuXL07o2s54XIgm-75" value="" style="endArrow=none;html=1;rounded=0;dashed=1;" parent="1" edge="1">
          <mxGeometry width="50" height="50" relative="1" as="geometry">
            <mxPoint x="-40" y="1960" as="sourcePoint" />
            <mxPoint x="1040" y="1960" as="targetPoint" />
          </mxGeometry>
        </mxCell>
        <mxCell id="Bh8vIYuXL07o2s54XIgm-76" value="" style="shape=image;html=1;verticalAlign=top;verticalLabelPosition=bottom;labelBackgroundColor=#ffffff;imageAspect=0;aspect=fixed;image=https://cdn1.iconfinder.com/data/icons/material-audio-video/22/loop-128.png" parent="1" vertex="1">
          <mxGeometry x="400" y="2080" width="40" height="40" as="geometry" />
        </mxCell>
        <mxCell id="Bh8vIYuXL07o2s54XIgm-77" value="" style="rounded=0;whiteSpace=wrap;html=1;" parent="1" vertex="1">
          <mxGeometry x="450" y="2080" width="20" height="40" as="geometry" />
        </mxCell>
        <mxCell id="Bh8vIYuXL07o2s54XIgm-78" value="" style="rounded=0;whiteSpace=wrap;html=1;" parent="1" vertex="1">
          <mxGeometry x="480" y="2080" width="20" height="40" as="geometry" />
        </mxCell>
        <mxCell id="Bh8vIYuXL07o2s54XIgm-79" value="" style="rounded=0;whiteSpace=wrap;html=1;" parent="1" vertex="1">
          <mxGeometry x="510" y="2080" width="20" height="40" as="geometry" />
        </mxCell>
        <mxCell id="Bh8vIYuXL07o2s54XIgm-80" value="" style="rounded=0;whiteSpace=wrap;html=1;" parent="1" vertex="1">
          <mxGeometry x="540" y="2080" width="20" height="40" as="geometry" />
        </mxCell>
        <mxCell id="Bh8vIYuXL07o2s54XIgm-81" value="&lt;font style=&quot;font-size: 18px;&quot;&gt;...&lt;/font&gt;" style="text;html=1;strokeColor=none;fillColor=none;align=center;verticalAlign=middle;whiteSpace=wrap;rounded=0;" parent="1" vertex="1">
          <mxGeometry x="560" y="2080" width="40" height="40" as="geometry" />
        </mxCell>
        <mxCell id="Bh8vIYuXL07o2s54XIgm-82" value="&lt;font style=&quot;font-size: 18px;&quot;&gt;network&lt;br&gt;page pulling&lt;/font&gt;" style="text;html=1;strokeColor=none;fillColor=none;align=center;verticalAlign=middle;whiteSpace=wrap;rounded=0;" parent="1" vertex="1">
          <mxGeometry x="430" y="2020" width="150" height="40" as="geometry" />
        </mxCell>
        <mxCell id="Bh8vIYuXL07o2s54XIgm-83" value="" style="endArrow=classic;html=1;rounded=0;exitX=0.2;exitY=1;exitDx=0;exitDy=0;exitPerimeter=0;" parent="1" source="Bh8vIYuXL07o2s54XIgm-82" edge="1">
          <mxGeometry width="50" height="50" relative="1" as="geometry">
            <mxPoint x="370" y="2190" as="sourcePoint" />
            <mxPoint x="460" y="2080" as="targetPoint" />
          </mxGeometry>
        </mxCell>
        <mxCell id="Bh8vIYuXL07o2s54XIgm-84" value="" style="endArrow=classic;html=1;rounded=0;exitX=0.4;exitY=1;exitDx=0;exitDy=0;exitPerimeter=0;entryX=0.5;entryY=0;entryDx=0;entryDy=0;" parent="1" source="Bh8vIYuXL07o2s54XIgm-82" target="Bh8vIYuXL07o2s54XIgm-78" edge="1">
          <mxGeometry width="50" height="50" relative="1" as="geometry">
            <mxPoint x="482" y="2070" as="sourcePoint" />
            <mxPoint x="470" y="2090" as="targetPoint" />
          </mxGeometry>
        </mxCell>
        <mxCell id="Bh8vIYuXL07o2s54XIgm-85" value="" style="endArrow=classic;html=1;rounded=0;exitX=0.6;exitY=1;exitDx=0;exitDy=0;exitPerimeter=0;entryX=0.5;entryY=0;entryDx=0;entryDy=0;" parent="1" source="Bh8vIYuXL07o2s54XIgm-82" target="Bh8vIYuXL07o2s54XIgm-79" edge="1">
          <mxGeometry width="50" height="50" relative="1" as="geometry">
            <mxPoint x="492" y="2080" as="sourcePoint" />
            <mxPoint x="480" y="2100" as="targetPoint" />
          </mxGeometry>
        </mxCell>
        <mxCell id="Bh8vIYuXL07o2s54XIgm-86" value="" style="endArrow=classic;html=1;rounded=0;exitX=0.8;exitY=1;exitDx=0;exitDy=0;exitPerimeter=0;entryX=0.5;entryY=0;entryDx=0;entryDy=0;" parent="1" source="Bh8vIYuXL07o2s54XIgm-82" target="Bh8vIYuXL07o2s54XIgm-80" edge="1">
          <mxGeometry width="50" height="50" relative="1" as="geometry">
            <mxPoint x="502" y="2090" as="sourcePoint" />
            <mxPoint x="490" y="2110" as="targetPoint" />
          </mxGeometry>
        </mxCell>
        <mxCell id="Bh8vIYuXL07o2s54XIgm-87" value="" style="endArrow=classic;html=1;rounded=0;exitX=0;exitY=0.5;exitDx=0;exitDy=0;entryX=1;entryY=0;entryDx=0;entryDy=0;" parent="1" source="Bh8vIYuXL07o2s54XIgm-74" target="Bh8vIYuXL07o2s54XIgm-89" edge="1">
          <mxGeometry width="50" height="50" relative="1" as="geometry">
            <mxPoint x="1080" y="1978" as="sourcePoint" />
            <mxPoint x="980" y="2048" as="targetPoint" />
          </mxGeometry>
        </mxCell>
        <mxCell id="Bh8vIYuXL07o2s54XIgm-88" value="" style="endArrow=classic;html=1;rounded=0;exitX=0.095;exitY=1;exitDx=0;exitDy=0;entryX=1;entryY=0.5;entryDx=0;entryDy=0;exitPerimeter=0;" parent="1" source="Bh8vIYuXL07o2s54XIgm-74" target="Bh8vIYuXL07o2s54XIgm-63" edge="1">
          <mxGeometry width="50" height="50" relative="1" as="geometry">
            <mxPoint x="1010" y="2068" as="sourcePoint" />
            <mxPoint x="950" y="2088" as="targetPoint" />
          </mxGeometry>
        </mxCell>
        <mxCell id="Bh8vIYuXL07o2s54XIgm-89" value="" style="rounded=0;whiteSpace=wrap;html=1;fillColor=#FFFFCC;" parent="1" vertex="1">
          <mxGeometry x="840" y="2060" width="40" height="40" as="geometry" />
        </mxCell>
        <mxCell id="Bh8vIYuXL07o2s54XIgm-91" value="" style="rounded=0;whiteSpace=wrap;html=1;" parent="1" vertex="1">
          <mxGeometry x="1080" y="1740" width="320" height="200" as="geometry" />
        </mxCell>
        <mxCell id="Bh8vIYuXL07o2s54XIgm-92" value="" style="rounded=0;whiteSpace=wrap;html=1;fillColor=#FFCCCC;" parent="1" vertex="1">
          <mxGeometry x="1340" y="1760" width="40" height="40" as="geometry" />
        </mxCell>
        <mxCell id="Bh8vIYuXL07o2s54XIgm-93" value="" style="rounded=0;whiteSpace=wrap;html=1;fillColor=#FFCCCC;" parent="1" vertex="1">
          <mxGeometry x="1340" y="1880" width="40" height="40" as="geometry" />
        </mxCell>
        <mxCell id="Bh8vIYuXL07o2s54XIgm-95" value="&lt;font style=&quot;font-size: 20px;&quot;&gt;incremental checkpoint at t&lt;sub&gt;1&lt;/sub&gt;&lt;br&gt;&lt;/font&gt;" style="text;html=1;strokeColor=none;fillColor=none;align=center;verticalAlign=middle;whiteSpace=wrap;rounded=0;" parent="1" vertex="1">
          <mxGeometry x="1080" y="1680" width="320" height="60" as="geometry" />
        </mxCell>
        <mxCell id="Bh8vIYuXL07o2s54XIgm-97" value="" style="rounded=0;whiteSpace=wrap;html=1;" parent="1" vertex="1">
          <mxGeometry x="1080" y="2140" width="320" height="200" as="geometry" />
        </mxCell>
        <mxCell id="Bh8vIYuXL07o2s54XIgm-100" value="&lt;font style=&quot;font-size: 20px;&quot;&gt;incremental checkpoint at t&lt;sub&gt;2&lt;/sub&gt;&lt;br&gt;&lt;/font&gt;" style="text;html=1;strokeColor=none;fillColor=none;align=center;verticalAlign=middle;whiteSpace=wrap;rounded=0;" parent="1" vertex="1">
          <mxGeometry x="1080" y="2080" width="320" height="60" as="geometry" />
        </mxCell>
        <mxCell id="Bh8vIYuXL07o2s54XIgm-101" value="" style="rounded=0;whiteSpace=wrap;html=1;fillColor=#FFFFCC;" parent="1" vertex="1">
          <mxGeometry x="1340" y="2218" width="40" height="40" as="geometry" />
        </mxCell>
        <mxCell id="Bh8vIYuXL07o2s54XIgm-102" value="" style="rounded=0;whiteSpace=wrap;html=1;fillColor=#FFFFCC;" parent="1" vertex="1">
          <mxGeometry x="1220" y="2278" width="40" height="40" as="geometry" />
        </mxCell>
        <mxCell id="Bh8vIYuXL07o2s54XIgm-103" value="" style="rounded=0;whiteSpace=wrap;html=1;fillColor=#FFFFCC;" parent="1" vertex="1">
          <mxGeometry x="1280" y="2158" width="40" height="40" as="geometry" />
        </mxCell>
        <mxCell id="Bh8vIYuXL07o2s54XIgm-104" value="&lt;font style=&quot;font-size: 20px;&quot;&gt;RAM state at t&lt;sub&gt;1&lt;/sub&gt;&lt;/font&gt;" style="text;html=1;strokeColor=none;fillColor=none;align=center;verticalAlign=middle;whiteSpace=wrap;rounded=0;" parent="1" vertex="1">
          <mxGeometry x="640" y="1600" width="320" height="40" as="geometry" />
        </mxCell>
        <mxCell id="Bh8vIYuXL07o2s54XIgm-105" value="&lt;font style=&quot;font-size: 20px;&quot;&gt;RAM state at t&lt;sub&gt;2&lt;/sub&gt;&lt;/font&gt;" style="text;html=1;strokeColor=none;fillColor=none;align=center;verticalAlign=middle;whiteSpace=wrap;rounded=0;" parent="1" vertex="1">
          <mxGeometry x="640" y="2000" width="320" height="40" as="geometry" />
        </mxCell>
        <mxCell id="Bh8vIYuXL07o2s54XIgm-109" value="&lt;font style=&quot;font-size: 20px;&quot;&gt;RAM state&lt;/font&gt;" style="text;html=1;strokeColor=none;fillColor=none;align=center;verticalAlign=middle;whiteSpace=wrap;rounded=0;" parent="1" vertex="1">
          <mxGeometry x="1081" y="1740" width="119" height="40" as="geometry" />
        </mxCell>
        <mxCell id="Bh8vIYuXL07o2s54XIgm-110" value="&lt;font style=&quot;font-size: 20px;&quot;&gt;RAM state&lt;/font&gt;" style="text;html=1;strokeColor=none;fillColor=none;align=center;verticalAlign=middle;whiteSpace=wrap;rounded=0;" parent="1" vertex="1">
          <mxGeometry x="1080" y="2138" width="119" height="40" as="geometry" />
        </mxCell>
        <mxCell id="Bh8vIYuXL07o2s54XIgm-111" value="&lt;font style=&quot;font-size: 18px;&quot;&gt;network&lt;br&gt;page pulling&lt;/font&gt;" style="text;html=1;strokeColor=none;fillColor=none;align=center;verticalAlign=middle;whiteSpace=wrap;rounded=0;" parent="1" vertex="1">
          <mxGeometry x="430" y="1620" width="150" height="40" as="geometry" />
        </mxCell>
        <mxCell id="Bh8vIYuXL07o2s54XIgm-112" value="&lt;font style=&quot;font-size: 18px;&quot;&gt;network&lt;br&gt;page pulling&lt;/font&gt;" style="text;html=1;strokeColor=none;fillColor=none;align=center;verticalAlign=middle;whiteSpace=wrap;rounded=0;" parent="1" vertex="1">
          <mxGeometry x="430" y="1220" width="150" height="40" as="geometry" />
        </mxCell>
      </root>
    </mxGraphModel>
  </diagram>
</mxfile>
